<mxfile host="65bd71144e">
    <diagram id="_IBHxorUF6-IF7zn8u4y" name="Page-1">
        <mxGraphModel dx="573" dy="308" grid="1" gridSize="10" guides="1" tooltips="1" connect="1" arrows="1" fold="1" page="1" pageScale="1" pageWidth="827" pageHeight="1169" math="0" shadow="0">
            <root>
                <mxCell id="0"/>
                <mxCell id="1" parent="0"/>
                <mxCell id="26" value="" style="shape=ext;double=1;rounded=0;whiteSpace=wrap;html=1;fontSize=6;fillColor=#60a917;fontColor=#ffffff;strokeColor=#2D7600;" vertex="1" parent="1">
                    <mxGeometry x="420" y="420" width="100" height="50" as="geometry"/>
                </mxCell>
                <mxCell id="27" value="" style="shape=ext;double=1;rounded=0;whiteSpace=wrap;html=1;fontSize=6;fillColor=#6a00ff;fontColor=#ffffff;strokeColor=#3700CC;" vertex="1" parent="1">
                    <mxGeometry x="520" y="420" width="90" height="50" as="geometry"/>
                </mxCell>
                <mxCell id="2" value="&lt;font style=&quot;font-size: 6px;&quot;&gt;App.jsx&lt;/font&gt;" style="rounded=1;whiteSpace=wrap;html=1;" vertex="1" parent="1">
                    <mxGeometry x="95" y="110" width="190" height="70" as="geometry"/>
                </mxCell>
                <mxCell id="3" value="&lt;span style=&quot;font-size: 6px;&quot;&gt;&amp;lt;rock /&amp;gt;&lt;/span&gt;" style="rounded=1;whiteSpace=wrap;html=1;" vertex="1" parent="1">
                    <mxGeometry x="229" y="30" width="30" height="20" as="geometry"/>
                </mxCell>
                <mxCell id="7" value="&lt;span style=&quot;font-size: 6px;&quot;&gt;&amp;lt;paper /&amp;gt;&lt;/span&gt;" style="rounded=1;whiteSpace=wrap;html=1;" vertex="1" parent="1">
                    <mxGeometry x="191" y="30" width="30" height="20" as="geometry"/>
                </mxCell>
                <mxCell id="8" value="&lt;span style=&quot;font-size: 6px;&quot;&gt;&amp;lt;scissors /&amp;gt;&lt;/span&gt;" style="rounded=1;whiteSpace=wrap;html=1;" vertex="1" parent="1">
                    <mxGeometry x="141" y="30" width="40" height="20" as="geometry"/>
                </mxCell>
                <mxCell id="10" value="rock" style="rounded=1;whiteSpace=wrap;html=1;fontSize=6;" vertex="1" parent="1">
                    <mxGeometry x="430" y="100" width="60" height="40" as="geometry"/>
                </mxCell>
                <mxCell id="11" value="paper" style="rounded=1;whiteSpace=wrap;html=1;fontSize=6;" vertex="1" parent="1">
                    <mxGeometry x="500" y="100" width="60" height="40" as="geometry"/>
                </mxCell>
                <mxCell id="12" value="scissors" style="rounded=1;whiteSpace=wrap;html=1;fontSize=6;" vertex="1" parent="1">
                    <mxGeometry x="570" y="100" width="60" height="40" as="geometry"/>
                </mxCell>
                <mxCell id="13" value="&lt;font style=&quot;font-size: 11px;&quot;&gt;Hello &lt;u style=&quot;&quot;&gt;Ray&lt;/u&gt;, make a choice&lt;/font&gt;" style="text;strokeColor=none;fillColor=none;html=1;fontSize=24;fontStyle=1;verticalAlign=middle;align=center;" vertex="1" parent="1">
                    <mxGeometry x="480" y="45" width="100" height="40" as="geometry"/>
                </mxCell>
                <mxCell id="14" value="ROCK" style="rounded=1;whiteSpace=wrap;html=1;fontSize=6;fillColor=#60a917;fontColor=#ffffff;strokeColor=#2D7600;" vertex="1" parent="1">
                    <mxGeometry x="440" y="245" width="60" height="60" as="geometry"/>
                </mxCell>
                <mxCell id="15" value="&lt;span style=&quot;font-size: 11px;&quot;&gt;You&lt;/span&gt;" style="text;strokeColor=none;fillColor=none;html=1;fontSize=24;fontStyle=1;verticalAlign=middle;align=center;" vertex="1" parent="1">
                    <mxGeometry x="420" y="205" width="100" height="40" as="geometry"/>
                </mxCell>
                <mxCell id="17" value="&lt;span style=&quot;font-size: 11px;&quot;&gt;Computer&lt;/span&gt;" style="text;strokeColor=none;fillColor=none;html=1;fontSize=24;fontStyle=1;verticalAlign=middle;align=center;" vertex="1" parent="1">
                    <mxGeometry x="540" y="205" width="100" height="40" as="geometry"/>
                </mxCell>
                <mxCell id="18" value="Paper" style="rounded=1;whiteSpace=wrap;html=1;fontSize=6;fillColor=#6a00ff;fontColor=#ffffff;strokeColor=#3700CC;" vertex="1" parent="1">
                    <mxGeometry x="560" y="245" width="60" height="60" as="geometry"/>
                </mxCell>
                <mxCell id="19" value="" style="shape=ext;double=1;rounded=1;whiteSpace=wrap;html=1;fontSize=11;fillColor=none;" vertex="1" parent="1">
                    <mxGeometry x="420" y="420" width="190" height="50" as="geometry"/>
                </mxCell>
                <mxCell id="20" value="&lt;span style=&quot;font-size: 11px;&quot;&gt;Scoreboard&lt;/span&gt;" style="text;strokeColor=none;fillColor=none;html=1;fontSize=24;fontStyle=1;verticalAlign=middle;align=center;" vertex="1" parent="1">
                    <mxGeometry x="470" y="370" width="100" height="20" as="geometry"/>
                </mxCell>
                <mxCell id="21" value="&lt;span style=&quot;font-size: 8px;&quot;&gt;Ray&lt;/span&gt;" style="text;strokeColor=none;fillColor=none;html=1;fontSize=24;fontStyle=1;verticalAlign=middle;align=center;" vertex="1" parent="1">
                    <mxGeometry x="420" y="415" width="100" height="20" as="geometry"/>
                </mxCell>
                <mxCell id="22" value="&lt;span style=&quot;font-size: 8px;&quot;&gt;Computer&lt;/span&gt;" style="text;strokeColor=none;fillColor=none;html=1;fontSize=24;fontStyle=1;verticalAlign=middle;align=center;" vertex="1" parent="1">
                    <mxGeometry x="510" y="420" width="100" height="10" as="geometry"/>
                </mxCell>
                <UserObject label="&lt;li&gt;&lt;br class=&quot;Apple-interchange-newline&quot;&gt;- name must be less than12 characters to fit in scoreborad&amp;nbsp;3&lt;/li&gt;&lt;li&gt;&lt;br style=&quot;text-align: left;&quot;&gt;&lt;/li&gt;" placeholders="1" name="Variable" id="25">
                    <mxCell style="text;html=1;align=center;verticalAlign=middle;whiteSpace=wrap;overflow=hidden;fontSize=6;" vertex="1" parent="1">
                        <mxGeometry x="630" y="430" width="80" height="40" as="geometry"/>
                    </mxCell>
                </UserObject>
                <UserObject label="5" placeholders="1" name="Variable" id="29">
                    <mxCell style="text;html=1;strokeColor=none;fillColor=none;align=center;verticalAlign=middle;whiteSpace=wrap;overflow=hidden;fontSize=6;fontStyle=1" vertex="1" parent="1">
                        <mxGeometry x="430" y="440" width="80" height="20" as="geometry"/>
                    </mxCell>
                </UserObject>
                <UserObject label="3" placeholders="1" name="Variable" id="30">
                    <mxCell style="text;html=1;strokeColor=none;fillColor=none;align=center;verticalAlign=middle;whiteSpace=wrap;overflow=hidden;fontSize=6;fontStyle=1" vertex="1" parent="1">
                        <mxGeometry x="520" y="440" width="80" height="20" as="geometry"/>
                    </mxCell>
                </UserObject>
                <UserObject label="YOU'RE WINNING!&amp;nbsp;ðŸ˜Š" placeholders="1" name="Variable" id="31">
                    <mxCell style="text;html=1;strokeColor=none;fillColor=none;align=center;verticalAlign=middle;whiteSpace=wrap;overflow=hidden;fontSize=6;fontStyle=1" vertex="1" parent="1">
                        <mxGeometry x="440" y="400" width="80" height="20" as="geometry"/>
                    </mxCell>
                </UserObject>
                <UserObject label="YOU'RE LOSING&amp;nbsp;ðŸ˜¢" placeholders="1" name="Variable" id="32">
                    <mxCell style="text;html=1;strokeColor=none;fillColor=none;align=center;verticalAlign=middle;whiteSpace=wrap;overflow=hidden;fontSize=6;fontStyle=1" vertex="1" parent="1">
                        <mxGeometry x="560" y="395" width="80" height="20" as="geometry"/>
                    </mxCell>
                </UserObject>
                <UserObject label="&amp;lt;a href=&quot;https://www.flaticon.com/free-icons/fist&quot; title=&quot;fist icons&quot;&amp;gt;Fist icons created by vectorspoint - Flaticon&amp;lt;/a&amp;gt;" placeholders="1" name="Variable" id="33">
                    <mxCell style="text;html=1;strokeColor=none;fillColor=none;align=center;verticalAlign=middle;whiteSpace=wrap;overflow=hidden;fontSize=6;" vertex="1" parent="1">
                        <mxGeometry x="670" y="45" width="140" height="35" as="geometry"/>
                    </mxCell>
                </UserObject>
                <UserObject label="&amp;lt;a href=&quot;https://www.flaticon.com/free-icons/scissors&quot; title=&quot;scissors icons&quot;&amp;gt;Scissors icons created by Cap Cool - Flaticon&amp;lt;/a&amp;gt;" placeholders="1" name="Variable" id="34">
                    <mxCell style="text;html=1;strokeColor=none;fillColor=none;align=center;verticalAlign=middle;whiteSpace=wrap;overflow=hidden;fontSize=6;" vertex="1" parent="1">
                        <mxGeometry x="680" y="100" width="110" height="40" as="geometry"/>
                    </mxCell>
                </UserObject>
                <UserObject label="&amp;lt;a href=&quot;https://www.flaticon.com/free-icons/rock-paper-scissors&quot; title=&quot;rock paper scissors icons&quot;&amp;gt;Rock paper scissors icons created by iconading - Flaticon&amp;lt;/a&amp;gt;" placeholders="1" name="Variable" id="36">
                    <mxCell style="text;html=1;strokeColor=none;fillColor=none;align=center;verticalAlign=middle;whiteSpace=wrap;overflow=hidden;fontSize=6;" vertex="1" parent="1">
                        <mxGeometry x="690" y="140" width="120" height="60" as="geometry"/>
                    </mxCell>
                </UserObject>
                <UserObject label="&amp;lt;a href=&quot;https://www.flaticon.com/free-icons/rock-paper-scissors&quot; title=&quot;rock paper scissors icons&quot;&amp;gt;Rock paper scissors icons created by Freepik - Flaticon&amp;lt;/a&amp;gt;" placeholders="1" name="Variable" id="37">
                    <mxCell style="text;html=1;strokeColor=none;fillColor=none;align=center;verticalAlign=middle;whiteSpace=wrap;overflow=hidden;fontSize=6;" vertex="1" parent="1">
                        <mxGeometry x="690" y="210" width="120" height="70" as="geometry"/>
                    </mxCell>
                </UserObject>
                <mxCell id="46" style="edgeStyle=none;html=1;exitX=0.25;exitY=1;exitDx=0;exitDy=0;fontSize=6;" edge="1" parent="1" source="38" target="14">
                    <mxGeometry relative="1" as="geometry"/>
                </mxCell>
                <UserObject label="onClick chosen icon shows in you green box" placeholders="1" name="Variable" id="38">
                    <mxCell style="text;html=1;strokeColor=none;fillColor=none;align=center;verticalAlign=middle;whiteSpace=wrap;overflow=hidden;fontSize=6;" vertex="1" parent="1">
                        <mxGeometry x="475" y="150" width="80" height="20" as="geometry"/>
                    </mxCell>
                </UserObject>
                <mxCell id="48" value="" style="edgeStyle=none;html=1;fontSize=6;" edge="1" parent="1" source="47" target="18">
                    <mxGeometry relative="1" as="geometry"/>
                </mxCell>
                <mxCell id="47" value="auto random alternative option that is not chosen" style="text;whiteSpace=wrap;html=1;fontSize=6;" vertex="1" parent="1">
                    <mxGeometry x="560" y="150" width="90" height="30" as="geometry"/>
                </mxCell>
                <mxCell id="59" style="edgeStyle=none;html=1;fontSize=6;" edge="1" parent="1" source="49" target="58">
                    <mxGeometry relative="1" as="geometry"/>
                </mxCell>
                <UserObject label="if player and computer choice is equal - DRAW" placeholders="1" name="Variable" id="49">
                    <mxCell style="text;html=1;strokeColor=none;fillColor=none;align=center;verticalAlign=middle;whiteSpace=wrap;overflow=hidden;fontSize=6;" vertex="1" parent="1">
                        <mxGeometry x="280" y="295" width="129" height="20" as="geometry"/>
                    </mxCell>
                </UserObject>
                <UserObject label="if player rock and computer scissors" placeholders="1" name="Variable" id="50">
                    <mxCell style="text;html=1;strokeColor=none;fillColor=none;align=center;verticalAlign=middle;whiteSpace=wrap;overflow=hidden;fontSize=6;" vertex="1" parent="1">
                        <mxGeometry x="285" y="350" width="119" height="20" as="geometry"/>
                    </mxCell>
                </UserObject>
                <UserObject label="if player paper and rock scissors" placeholders="1" name="Variable" id="51">
                    <mxCell style="text;html=1;strokeColor=none;fillColor=none;align=center;verticalAlign=middle;whiteSpace=wrap;overflow=hidden;fontSize=6;" vertex="1" parent="1">
                        <mxGeometry x="285" y="370" width="119" height="20" as="geometry"/>
                    </mxCell>
                </UserObject>
                <mxCell id="56" style="edgeStyle=none;html=1;fontSize=6;" edge="1" parent="1" source="52" target="53">
                    <mxGeometry relative="1" as="geometry"/>
                </mxCell>
                <UserObject label="if player scissors and paper scissors" placeholders="1" name="Variable" id="52">
                    <mxCell style="text;html=1;strokeColor=none;fillColor=none;align=center;verticalAlign=middle;whiteSpace=wrap;overflow=hidden;fontSize=6;" vertex="1" parent="1">
                        <mxGeometry x="285" y="390" width="119" height="10" as="geometry"/>
                    </mxCell>
                </UserObject>
                <mxCell id="57" style="edgeStyle=none;html=1;entryX=0.5;entryY=0;entryDx=0;entryDy=0;fontSize=6;" edge="1" parent="1" source="53" target="54">
                    <mxGeometry relative="1" as="geometry"/>
                </mxCell>
                <UserObject label="PLAYER WINS" placeholders="1" name="Variable" id="53">
                    <mxCell style="text;html=1;strokeColor=none;fillColor=none;align=center;verticalAlign=middle;whiteSpace=wrap;overflow=hidden;fontSize=6;" vertex="1" parent="1">
                        <mxGeometry x="285" y="420" width="119" height="20" as="geometry"/>
                    </mxCell>
                </UserObject>
                <UserObject label="ELSE PLAYER LOSE" placeholders="1" name="Variable" id="54">
                    <mxCell style="text;html=1;strokeColor=none;fillColor=none;align=center;verticalAlign=middle;whiteSpace=wrap;overflow=hidden;fontSize=6;" vertex="1" parent="1">
                        <mxGeometry x="285" y="450" width="119" height="20" as="geometry"/>
                    </mxCell>
                </UserObject>
                <UserObject label="DRAW&lt;br&gt;" placeholders="1" name="Variable" id="58">
                    <mxCell style="text;html=1;strokeColor=none;fillColor=none;align=center;verticalAlign=middle;whiteSpace=wrap;overflow=hidden;fontSize=6;" vertex="1" parent="1">
                        <mxGeometry x="280" y="330" width="129" height="20" as="geometry"/>
                    </mxCell>
                </UserObject>
            </root>
        </mxGraphModel>
    </diagram>
</mxfile>